Rumble.In.The.Bronx.1995.BRrip.720p.Dual.Audio.Eng-Hindi~MSBHATTI

IMDB:- http://www.imdb.com/title/tt0113326/

Plot:- A young man visiting and helping his uncle in New York City finds himself forced to fight a street gang and the mob with his martial art skills.

Director: Stanley Tong
Writers: Edward Tang , Fibe Ma
Stars: Jackie Chan, Anita Mui and Françoise Yip 

INFO:-
General
Complete name                    : Rumble.In.The.Bronx.1995.BRrip.720p.Dual.Audio.Eng-Hindi~MSBHATTI
Format                           : Matroska
File size                        : 2.30 GiB
Duration                         : 1h 25mn
Overall bit rate                 : 3 866 Kbps
Encoded date                     : UTC 2011-11-25 13:28:43
Writing application              : mkvmerge v3.3.0 ('Language') built on Mar 24 2010 14:59:24
Writing library                  : libebml v0.8.0 + libmatroska v0.9.0

Video
ID                               : 1
Format                           : AVC
Format/Info                      : Advanced Video Codec
Format profile                   : High@L4.1
Format settings, CABAC           : Yes
Format settings, ReFrames        : 5 frames
Codec ID                         : V_MPEG4/ISO/AVC
Duration                         : 1h 25mn
Bit rate                         : 3 149 Kbps
Width                            : 1 280 pixels
Height                           : 528 pixels
Display aspect ratio             : 2.40:1
Frame rate                       : 25.000 fps
Color space                      : YUV
Chroma subsampling               : 4:2:0
Bit depth                        : 8 bits
Scan type                        : Progressive
Bits/(Pixel*Frame)               : 0.186
Stream size                      : 1.87 GiB (81%)
Title                            : MSBHATTI
Writing library                  : x264 core 77 r1294 813fe72
Encoding settings                : cabac=1 / ref=5 / deblock=1:-1:-1 / analyse=0x3:0x133 / me=umh / subme=9 / psy=1 / psy_rd=1.0:0.0 / mixed_ref=1 / me_range=24 / chroma_me=1 / trellis=2 / 8x8dct=1 / cqm=0 / deadzone=21,11 / chroma_qp_offset=-2 / threads=3 / nr=0 / decimate=0 / mbaff=0 / constrained_intra=0 / bframes=3 / b_pyramid=0 / b_adapt=2 / b_bias=0 / direct=3 / wpredb=1 / keyint=250 / keyint_min=25 / scenecut=40 / rc_lookahead=40 / rc=crf / mbtree=1 / crf=20.0 / qcomp=0.60 / qpmin=10 / qpmax=51 / qpstep=4 / vbv_maxrate=50000 / vbv_bufsize=50000 / ip_ratio=1.40 / aq=1:1.00
Language                         : English

Audio #1
ID                               : 2
Format                           : AC-3
Format/Info                      : Audio Coding 3
Mode extension                   : CM (complete main)
Codec ID                         : A_AC3
Duration                         : 1h 25mn
Bit rate mode                    : Constant
Bit rate                         : 384 Kbps
Channel(s)                       : 6 channels
Channel positions                : Front: L C R, Side: L R, LFE
Sampling rate                    : 48.0 KHz
Bit depth                        : 16 bits
Compression mode                 : Lossy
Stream size                      : 234 MiB (10%)
Title                            : MSBHATTI
Language                         : English

Audio #2
ID                               : 3
Format                           : MPEG Audio
Format version                   : Version 1
Format profile                   : Layer 3
Codec ID                         : A_MPEG/L3
Codec ID/Hint                    : MP3
Duration                         : 1h 25mn
Bit rate mode                    : Constant
Bit rate                         : 256 Kbps
Channel(s)                       : 2 channels
Sampling rate                    : 48.0 KHz
Compression mode                 : Lossy
Stream size                      : 156 MiB (7%)
Title                            : MSBHATTI
Language                         : Hindi

SCREENSHOTS:-
[IMG]http://i.imgur.com/tjwIQ.jpg[/IMG]
[IMG]http://i.imgur.com/A9Eu5.jpg[/IMG]
[IMG]http://i.imgur.com/3Py3C.jpg[/IMG]
[IMG]http://i.imgur.com/fvvVN.jpg[/IMG]
[IMG]http://i.imgur.com/ilshY.jpg[/IMG]
[IMG]http://i.imgur.com/laozA.jpg[/IMG]
[IMG]http://i.imgur.com/f1tCM.jpg[/IMG]

IF U LIKE MY WORK SO COMMENT PLZ

REGARDS

MSBHATTI